ply
format ascii 1.0
Created by Blender3D 242 - www.blender.org, source file: frustum.blend
element vertex 20
property float32 x
property float32 y
property float32 z
property float32 nx
property float32 ny
property float32 nz
property float32 s
property float32 t
property uint8 red
property uint8 green
property uint8 blue
element face 6
property list uint8 int32 vertex_indices
end_header
1.000000 1.000000 -1.000000 0.577349 0.577349 -0.577349 0.000000 1.000000 2 174 163
1.000000 -1.000000 -1.000000 0.577349 -0.577349 -0.577349 0.000000 0.000000 2 171 136
-1.000000 -1.000000 -1.000000 -0.577349 -0.577349 -0.577349 1.000000 0.000000 0 186 149
-1.000000 1.000000 -1.000000 -0.577349 0.577349 -0.577349 1.000000 1.000000 0 151 120
1.000000 0.999999 1.000000 0.577349 0.577349 0.577349 0.000000 1.000000 2 53 182
-1.000000 1.000000 1.000000 -0.577349 0.577349 0.577349 0.000000 0.000000 2 104 103
-1.000000 -1.000000 1.000000 -0.577349 -0.577349 0.577349 1.000000 0.000000 2 205 151
0.999999 -1.000001 1.000000 0.577349 -0.577349 0.577349 1.000000 1.000000 14 130 107
1.000000 0.999999 1.000000 0.577349 0.577349 0.577349 0.000000 0.000000 2 53 182
0.999999 -1.000001 1.000000 0.577349 -0.577349 0.577349 1.000000 0.000000 14 130 107
1.000000 -1.000000 -1.000000 0.577349 -0.577349 -0.577349 1.000000 1.000000 2 171 136
1.000000 -1.000000 -1.000000 0.577349 -0.577349 -0.577349 0.000000 1.000000 2 171 136
0.999999 -1.000001 1.000000 0.577349 -0.577349 0.577349 0.000000 0.000000 14 130 107
-1.000000 -1.000000 -1.000000 -0.577349 -0.577349 -0.577349 1.000000 1.000000 0 186 149
-1.000000 -1.000000 -1.000000 -0.577349 -0.577349 -0.577349 0.000000 1.000000 0 186 149
-1.000000 -1.000000 1.000000 -0.577349 -0.577349 0.577349 0.000000 0.000000 2 205 151
-1.000000 1.000000 1.000000 -0.577349 0.577349 0.577349 1.000000 0.000000 2 104 103
1.000000 1.000000 -1.000000 0.577349 0.577349 -0.577349 0.000000 0.000000 2 174 163
-1.000000 1.000000 -1.000000 -0.577349 0.577349 -0.577349 1.000000 0.000000 0 151 120
-1.000000 1.000000 1.000000 -0.577349 0.577349 0.577349 1.000000 1.000000 2 104 103
4 0 1 2 3 
4 4 5 6 7 
4 0 8 9 10 
4 11 12 6 13 
4 14 15 16 3 
4 4 17 18 19 
