ply
format ascii 1.0
Created by Blender3D 242 - www.blender.org, source file: cylinder.blend
element vertex 194
property float32 x
property float32 y
property float32 z
property float32 nx
property float32 ny
property float32 nz
property float32 s
property float32 t
property uint8 red
property uint8 green
property uint8 blue
element face 96
property list uint8 int32 vertex_indices
end_header
0.000000 0.000000 -1.000000 0.000000 0.000000 -1.000000 0.000000 1.000000 126 126 0
0.707107 0.707107 -1.000000 0.498764 0.498764 -0.708792 0.000000 0.000000 190 190 0
0.831470 0.555570 -1.000000 0.586505 0.391888 -0.708792 1.000000 0.000000 232 232 0
0.000000 0.000000 1.000000 0.000000 0.000000 1.000000 0.000000 1.000000 126 82 82
0.831471 0.555569 1.000000 0.586505 0.391888 0.708792 0.000000 0.000000 129 59 59
0.707108 0.707105 1.000000 0.498764 0.498764 0.708792 1.000000 0.000000 121 62 62
0.831470 0.555570 -1.000000 0.586505 0.391888 -0.708792 0.000000 0.000000 232 232 0
0.923880 0.382683 -1.000000 0.651692 0.269936 -0.708792 1.000000 0.000000 234 234 0
0.923880 0.382682 1.000000 0.651692 0.269936 0.708792 0.000000 0.000000 149 48 48
0.831471 0.555569 1.000000 0.586505 0.391888 0.708792 1.000000 0.000000 129 59 59
0.923880 0.382683 -1.000000 0.651692 0.269936 -0.708792 0.000000 0.000000 234 234 0
0.980785 0.195090 -1.000000 0.691824 0.137608 -0.708792 1.000000 0.000000 205 205 0
0.980786 0.195088 1.000000 0.691824 0.137608 0.708792 0.000000 0.000000 164 39 39
0.923880 0.382682 1.000000 0.651692 0.269936 0.708792 1.000000 0.000000 149 48 48
0.980785 0.195090 -1.000000 0.691824 0.137608 -0.708792 0.000000 0.000000 205 205 0
1.000000 0.000000 -1.000000 0.705374 0.000000 -0.708792 1.000000 0.000000 164 164 0
1.000000 -0.000002 1.000000 0.705374 0.000000 0.708792 0.000000 0.000000 189 29 18
0.980786 0.195088 1.000000 0.691824 0.137608 0.708792 1.000000 0.000000 164 39 39
1.000000 0.000000 -1.000000 0.705374 0.000000 -0.708792 0.000000 0.000000 164 164 0
0.980785 -0.195090 -1.000000 0.691824 -0.137608 -0.708792 1.000000 0.000000 121 121 6
0.980785 -0.195092 1.000000 0.691824 -0.137608 0.708792 0.000000 0.000000 196 42 1
1.000000 -0.000002 1.000000 0.705374 0.000000 0.708792 1.000000 0.000000 189 29 18
0.980785 -0.195090 -1.000000 0.691824 -0.137608 -0.708792 0.000000 0.000000 121 121 6
0.923880 -0.382683 -1.000000 0.651692 -0.269936 -0.708792 1.000000 0.000000 108 108 5
0.923879 -0.382685 1.000000 0.651692 -0.269936 0.708792 0.000000 0.000000 189 22 22
0.980785 -0.195092 1.000000 0.691824 -0.137608 0.708792 1.000000 0.000000 196 42 1
0.923880 -0.382683 -1.000000 0.651692 -0.269936 -0.708792 0.000000 0.000000 108 108 5
0.831470 -0.555570 -1.000000 0.586505 -0.391888 -0.708792 1.000000 0.000000 126 126 0
0.831469 -0.555571 1.000000 0.586505 -0.391888 0.708792 0.000000 0.000000 173 25 25
0.923879 -0.382685 1.000000 0.651692 -0.269936 0.708792 1.000000 0.000000 189 22 22
0.831470 -0.555570 -1.000000 0.586505 -0.391888 -0.708792 0.000000 0.000000 126 126 0
0.707107 -0.707107 -1.000000 0.498764 -0.498764 -0.708792 1.000000 0.000000 132 132 0
0.707106 -0.707107 1.000000 0.498764 -0.498764 0.708792 0.000000 0.000000 152 29 29
0.831469 -0.555571 1.000000 0.586505 -0.391888 0.708792 1.000000 0.000000 173 25 25
0.707107 -0.707107 -1.000000 0.498764 -0.498764 -0.708792 0.000000 0.000000 132 132 0
0.555570 -0.831470 -1.000000 0.391888 -0.586505 -0.708792 1.000000 0.000000 158 158 0
0.555570 -0.831470 1.000000 0.391888 -0.586505 0.708792 0.000000 0.000000 141 26 26
0.707106 -0.707107 1.000000 0.498764 -0.498764 0.708792 1.000000 0.000000 152 29 29
0.555570 -0.831470 -1.000000 0.391888 -0.586505 -0.708792 0.000000 0.000000 158 158 0
0.382683 -0.923880 -1.000000 0.269936 -0.651692 -0.708792 1.000000 0.000000 123 123 0
0.382684 -0.923880 1.000000 0.269936 -0.651692 0.708792 0.000000 0.000000 125 28 28
0.555570 -0.831470 1.000000 0.391888 -0.586505 0.708792 1.000000 0.000000 141 26 26
0.382683 -0.923880 -1.000000 0.269936 -0.651692 -0.708792 0.000000 0.000000 123 123 0
0.195090 -0.980785 -1.000000 0.137608 -0.691824 -0.708792 1.000000 0.000000 148 148 0
0.195091 -0.980785 1.000000 0.137608 -0.691824 0.708792 0.000000 0.000000 115 29 29
0.382684 -0.923880 1.000000 0.269936 -0.651692 0.708792 1.000000 0.000000 125 28 28
0.195090 -0.980785 -1.000000 0.137608 -0.691824 -0.708792 0.000000 0.000000 148 148 0
-0.000000 -1.000000 -1.000000 0.000000 -0.705374 -0.708792 1.000000 0.000000 141 141 0
0.000001 -1.000000 1.000000 0.000000 -0.705374 0.708792 0.000000 0.000000 114 29 29
0.195091 -0.980785 1.000000 0.137608 -0.691824 0.708792 1.000000 0.000000 115 29 29
-0.000000 -1.000000 -1.000000 0.000000 -0.705374 -0.708792 0.000000 0.000000 141 141 0
-0.195091 -0.980785 -1.000000 -0.137608 -0.691824 -0.708792 1.000000 0.000000 115 115 0
-0.195089 -0.980786 1.000000 -0.137608 -0.691824 0.708792 0.000000 0.000000 113 28 28
0.000001 -1.000000 1.000000 0.000000 -0.705374 0.708792 1.000000 0.000000 114 29 29
-0.195091 -0.980785 -1.000000 -0.137608 -0.691824 -0.708792 0.000000 0.000000 115 115 0
-0.382684 -0.923879 -1.000000 -0.269936 -0.651692 -0.708792 1.000000 0.000000 119 119 0
-0.382682 -0.923880 1.000000 -0.269936 -0.651692 0.708792 0.000000 0.000000 117 28 28
-0.195089 -0.980786 1.000000 -0.137608 -0.691824 0.708792 1.000000 0.000000 113 28 28
-0.382684 -0.923879 -1.000000 -0.269936 -0.651692 -0.708792 0.000000 0.000000 119 119 0
-0.555571 -0.831469 -1.000000 -0.391888 -0.586505 -0.708792 1.000000 0.000000 123 123 0
-0.555568 -0.831471 1.000000 -0.391888 -0.586505 0.708792 0.000000 0.000000 125 25 25
-0.382682 -0.923880 1.000000 -0.269936 -0.651692 0.708792 1.000000 0.000000 117 28 28
-0.555571 -0.831469 -1.000000 -0.391888 -0.586505 -0.708792 0.000000 0.000000 123 123 0
-0.707107 -0.707106 -1.000000 -0.498764 -0.498764 -0.708792 1.000000 0.000000 132 132 0
-0.707105 -0.707109 1.000000 -0.498764 -0.498764 0.708792 0.000000 0.000000 131 28 22
-0.555568 -0.831471 1.000000 -0.391888 -0.586505 0.708792 1.000000 0.000000 125 25 25
-0.707107 -0.707106 -1.000000 -0.498764 -0.498764 -0.708792 0.000000 0.000000 132 132 0
-0.831470 -0.555570 -1.000000 -0.586505 -0.391888 -0.708792 1.000000 0.000000 162 162 0
-0.831468 -0.555573 1.000000 -0.586505 -0.391888 0.708792 0.000000 0.000000 141 29 17
-0.707105 -0.707109 1.000000 -0.498764 -0.498764 0.708792 1.000000 0.000000 131 28 22
-0.831470 -0.555570 -1.000000 -0.586505 -0.391888 -0.708792 0.000000 0.000000 162 162 0
-0.923880 -0.382683 -1.000000 -0.651692 -0.269936 -0.708792 1.000000 0.000000 165 165 0
-0.923878 -0.382686 1.000000 -0.651692 -0.269936 0.708792 0.000000 0.000000 162 26 13
-0.831468 -0.555573 1.000000 -0.586505 -0.391888 0.708792 1.000000 0.000000 141 29 17
-0.923880 -0.382683 -1.000000 -0.651692 -0.269936 -0.708792 0.000000 0.000000 165 165 0
-0.980785 -0.195089 -1.000000 -0.691824 -0.137608 -0.708792 1.000000 0.000000 127 127 0
-0.980785 -0.195094 1.000000 -0.691824 -0.137608 0.708792 0.000000 0.000000 177 30 11
-0.923878 -0.382686 1.000000 -0.651692 -0.269936 0.708792 1.000000 0.000000 162 26 13
-0.980785 -0.195089 -1.000000 -0.691824 -0.137608 -0.708792 0.000000 0.000000 127 127 0
-1.000000 0.000001 -1.000000 -0.705374 0.000000 -0.708792 1.000000 0.000000 103 103 0
-1.000000 -0.000004 1.000000 -0.705374 0.000000 0.708792 0.000000 0.000000 152 23 8
-0.980785 -0.195094 1.000000 -0.691824 -0.137608 0.708792 1.000000 0.000000 177 30 11
-1.000000 0.000001 -1.000000 -0.705374 0.000000 -0.708792 0.000000 0.000000 103 103 0
-0.980785 0.195091 -1.000000 -0.691824 0.137608 -0.708792 1.000000 0.000000 143 143 0
-0.980786 0.195086 1.000000 -0.691824 0.137608 0.708792 0.000000 0.000000 156 100 0
-1.000000 -0.000004 1.000000 -0.705374 0.000000 0.708792 1.000000 0.000000 152 23 8
-0.980785 0.195091 -1.000000 -0.691824 0.137608 -0.708792 0.000000 0.000000 143 143 0
-0.923879 0.382684 -1.000000 -0.651692 0.269936 -0.708792 1.000000 0.000000 135 135 0
-0.923881 0.382679 1.000000 -0.651692 0.269936 0.708792 0.000000 0.000000 128 70 12
-0.980786 0.195086 1.000000 -0.691824 0.137608 0.708792 1.000000 0.000000 156 100 0
-0.923879 0.382684 -1.000000 -0.651692 0.269936 -0.708792 0.000000 0.000000 135 135 0
-0.831469 0.555571 -1.000000 -0.586505 0.391888 -0.708792 1.000000 0.000000 211 211 0
-0.831473 0.555566 1.000000 -0.586505 0.391888 0.708792 0.000000 0.000000 105 44 28
-0.923881 0.382679 1.000000 -0.651692 0.269936 0.708792 1.000000 0.000000 128 70 12
-0.831469 0.555571 -1.000000 -0.586505 0.391888 -0.708792 0.000000 0.000000 211 211 0
-0.707106 0.707108 -1.000000 -0.498764 0.498764 -0.708792 1.000000 0.000000 230 230 0
-0.707111 0.707103 1.000000 -0.498764 0.498764 0.708792 0.000000 0.000000 86 33 33
-0.831473 0.555566 1.000000 -0.586505 0.391888 0.708792 1.000000 0.000000 105 44 28
-0.707106 0.707108 -1.000000 -0.498764 0.498764 -0.708792 0.000000 0.000000 230 230 0
-0.555569 0.831470 -1.000000 -0.391888 0.586505 -0.708792 1.000000 0.000000 185 185 0
-0.555575 0.831466 1.000000 -0.391888 0.586505 0.708792 0.000000 0.000000 91 32 32
-0.707111 0.707103 1.000000 -0.498764 0.498764 0.708792 1.000000 0.000000 86 33 33
-0.555569 0.831470 -1.000000 -0.391888 0.586505 -0.708792 0.000000 0.000000 185 185 0
-0.382682 0.923880 -1.000000 -0.269936 0.651692 -0.708792 1.000000 0.000000 167 167 0
-0.382689 0.923877 1.000000 -0.269936 0.651692 0.708792 0.000000 0.000000 94 32 32
-0.555575 0.831466 1.000000 -0.391888 0.586505 0.708792 1.000000 0.000000 91 32 32
-0.382682 0.923880 -1.000000 -0.269936 0.651692 -0.708792 0.000000 0.000000 167 167 0
-0.195089 0.980786 -1.000000 -0.137608 0.691824 -0.708792 1.000000 0.000000 191 191 0
-0.195097 0.980784 1.000000 -0.137608 0.691824 0.708792 0.000000 0.000000 82 36 36
-0.382689 0.923877 1.000000 -0.269936 0.651692 0.708792 1.000000 0.000000 94 32 32
-0.195089 0.980786 -1.000000 -0.137608 0.691824 -0.708792 0.000000 0.000000 191 191 0
0.000002 1.000000 -1.000000 0.000000 0.705374 -0.708792 1.000000 0.000000 212 212 0
-0.000007 1.000000 1.000000 0.000000 0.705374 0.708792 0.000000 0.000000 76 42 42
-0.195097 0.980784 1.000000 -0.137608 0.691824 0.708792 1.000000 0.000000 82 36 36
0.000002 1.000000 -1.000000 0.000000 0.705374 -0.708792 0.000000 0.000000 212 212 0
0.195092 0.980785 -1.000000 0.137608 0.691824 -0.708792 1.000000 0.000000 208 208 0
0.195083 0.980787 1.000000 0.137608 0.691824 0.708792 0.000000 0.000000 84 48 48
-0.000007 1.000000 1.000000 0.000000 0.705374 0.708792 1.000000 0.000000 76 42 42
0.195092 0.980785 -1.000000 0.137608 0.691824 -0.708792 0.000000 0.000000 208 208 0
0.382685 0.923879 -1.000000 0.269936 0.651692 -0.708792 1.000000 0.000000 184 184 0
0.382676 0.923883 1.000000 0.269936 0.651692 0.708792 0.000000 0.000000 106 49 49
0.195083 0.980787 1.000000 0.137608 0.691824 0.708792 1.000000 0.000000 84 48 48
0.382685 0.923879 -1.000000 0.269936 0.651692 -0.708792 0.000000 0.000000 184 184 0
0.555572 0.831469 -1.000000 0.391888 0.586505 -0.708792 1.000000 0.000000 182 182 0
0.555563 0.831474 1.000000 0.391888 0.586505 0.708792 0.000000 0.000000 118 53 53
0.382676 0.923883 1.000000 0.269936 0.651692 0.708792 1.000000 0.000000 106 49 49
0.555572 0.831469 -1.000000 0.391888 0.586505 -0.708792 0.000000 1.000000 182 182 0
0.000000 0.000000 -1.000000 0.000000 0.000000 -1.000000 1.000000 0.000000 126 126 0
0.707108 0.707105 1.000000 0.498764 0.498764 0.708792 0.000000 0.000000 121 62 62
0.555563 0.831474 1.000000 0.391888 0.586505 0.708792 1.000000 0.000000 118 53 53
0.707107 0.707107 -1.000000 0.498764 0.498764 -0.708792 0.000000 1.000000 190 190 0
0.831470 0.555570 -1.000000 0.586505 0.391888 -0.708792 1.000000 1.000000 232 232 0
0.831470 0.555570 -1.000000 0.586505 0.391888 -0.708792 0.000000 1.000000 232 232 0
0.923880 0.382683 -1.000000 0.651692 0.269936 -0.708792 1.000000 1.000000 234 234 0
0.923880 0.382683 -1.000000 0.651692 0.269936 -0.708792 0.000000 1.000000 234 234 0
0.980785 0.195090 -1.000000 0.691824 0.137608 -0.708792 1.000000 1.000000 205 205 0
0.980785 0.195090 -1.000000 0.691824 0.137608 -0.708792 0.000000 1.000000 205 205 0
1.000000 0.000000 -1.000000 0.705374 0.000000 -0.708792 1.000000 1.000000 164 164 0
1.000000 0.000000 -1.000000 0.705374 0.000000 -0.708792 0.000000 1.000000 164 164 0
0.980785 -0.195090 -1.000000 0.691824 -0.137608 -0.708792 1.000000 1.000000 121 121 6
0.980785 -0.195090 -1.000000 0.691824 -0.137608 -0.708792 0.000000 1.000000 121 121 6
0.923880 -0.382683 -1.000000 0.651692 -0.269936 -0.708792 1.000000 1.000000 108 108 5
0.923880 -0.382683 -1.000000 0.651692 -0.269936 -0.708792 0.000000 1.000000 108 108 5
0.831470 -0.555570 -1.000000 0.586505 -0.391888 -0.708792 1.000000 1.000000 126 126 0
0.831470 -0.555570 -1.000000 0.586505 -0.391888 -0.708792 0.000000 1.000000 126 126 0
0.707107 -0.707107 -1.000000 0.498764 -0.498764 -0.708792 1.000000 1.000000 132 132 0
0.707107 -0.707107 -1.000000 0.498764 -0.498764 -0.708792 0.000000 1.000000 132 132 0
0.555570 -0.831470 -1.000000 0.391888 -0.586505 -0.708792 1.000000 1.000000 158 158 0
0.555570 -0.831470 -1.000000 0.391888 -0.586505 -0.708792 0.000000 1.000000 158 158 0
0.382683 -0.923880 -1.000000 0.269936 -0.651692 -0.708792 1.000000 1.000000 123 123 0
0.382683 -0.923880 -1.000000 0.269936 -0.651692 -0.708792 0.000000 1.000000 123 123 0
0.195090 -0.980785 -1.000000 0.137608 -0.691824 -0.708792 1.000000 1.000000 148 148 0
0.195090 -0.980785 -1.000000 0.137608 -0.691824 -0.708792 0.000000 1.000000 148 148 0
-0.000000 -1.000000 -1.000000 0.000000 -0.705374 -0.708792 1.000000 1.000000 141 141 0
-0.000000 -1.000000 -1.000000 0.000000 -0.705374 -0.708792 0.000000 1.000000 141 141 0
-0.195091 -0.980785 -1.000000 -0.137608 -0.691824 -0.708792 1.000000 1.000000 115 115 0
-0.195091 -0.980785 -1.000000 -0.137608 -0.691824 -0.708792 0.000000 1.000000 115 115 0
-0.382684 -0.923879 -1.000000 -0.269936 -0.651692 -0.708792 1.000000 1.000000 119 119 0
-0.382684 -0.923879 -1.000000 -0.269936 -0.651692 -0.708792 0.000000 1.000000 119 119 0
-0.555571 -0.831469 -1.000000 -0.391888 -0.586505 -0.708792 1.000000 1.000000 123 123 0
-0.555571 -0.831469 -1.000000 -0.391888 -0.586505 -0.708792 0.000000 1.000000 123 123 0
-0.707107 -0.707106 -1.000000 -0.498764 -0.498764 -0.708792 1.000000 1.000000 132 132 0
-0.707107 -0.707106 -1.000000 -0.498764 -0.498764 -0.708792 0.000000 1.000000 132 132 0
-0.831470 -0.555570 -1.000000 -0.586505 -0.391888 -0.708792 1.000000 1.000000 162 162 0
-0.831470 -0.555570 -1.000000 -0.586505 -0.391888 -0.708792 0.000000 1.000000 162 162 0
-0.923880 -0.382683 -1.000000 -0.651692 -0.269936 -0.708792 1.000000 1.000000 165 165 0
-0.923880 -0.382683 -1.000000 -0.651692 -0.269936 -0.708792 0.000000 1.000000 165 165 0
-0.980785 -0.195089 -1.000000 -0.691824 -0.137608 -0.708792 1.000000 1.000000 127 127 0
-0.980785 -0.195089 -1.000000 -0.691824 -0.137608 -0.708792 0.000000 1.000000 127 127 0
-1.000000 0.000001 -1.000000 -0.705374 0.000000 -0.708792 1.000000 1.000000 103 103 0
-1.000000 0.000001 -1.000000 -0.705374 0.000000 -0.708792 0.000000 1.000000 103 103 0
-0.980785 0.195091 -1.000000 -0.691824 0.137608 -0.708792 1.000000 1.000000 143 143 0
-0.980785 0.195091 -1.000000 -0.691824 0.137608 -0.708792 0.000000 1.000000 143 143 0
-0.923879 0.382684 -1.000000 -0.651692 0.269936 -0.708792 1.000000 1.000000 135 135 0
-0.923879 0.382684 -1.000000 -0.651692 0.269936 -0.708792 0.000000 1.000000 135 135 0
-0.831469 0.555571 -1.000000 -0.586505 0.391888 -0.708792 1.000000 1.000000 211 211 0
-0.831469 0.555571 -1.000000 -0.586505 0.391888 -0.708792 0.000000 1.000000 211 211 0
-0.707106 0.707108 -1.000000 -0.498764 0.498764 -0.708792 1.000000 1.000000 230 230 0
-0.707106 0.707108 -1.000000 -0.498764 0.498764 -0.708792 0.000000 1.000000 230 230 0
-0.555569 0.831470 -1.000000 -0.391888 0.586505 -0.708792 1.000000 1.000000 185 185 0
-0.555569 0.831470 -1.000000 -0.391888 0.586505 -0.708792 0.000000 1.000000 185 185 0
-0.382682 0.923880 -1.000000 -0.269936 0.651692 -0.708792 1.000000 1.000000 167 167 0
-0.382682 0.923880 -1.000000 -0.269936 0.651692 -0.708792 0.000000 1.000000 167 167 0
-0.195089 0.980786 -1.000000 -0.137608 0.691824 -0.708792 1.000000 1.000000 191 191 0
-0.195089 0.980786 -1.000000 -0.137608 0.691824 -0.708792 0.000000 1.000000 191 191 0
0.000002 1.000000 -1.000000 0.000000 0.705374 -0.708792 1.000000 1.000000 212 212 0
0.000002 1.000000 -1.000000 0.000000 0.705374 -0.708792 0.000000 1.000000 212 212 0
0.195092 0.980785 -1.000000 0.137608 0.691824 -0.708792 1.000000 1.000000 208 208 0
0.195092 0.980785 -1.000000 0.137608 0.691824 -0.708792 0.000000 1.000000 208 208 0
0.382685 0.923879 -1.000000 0.269936 0.651692 -0.708792 1.000000 1.000000 184 184 0
0.382685 0.923879 -1.000000 0.269936 0.651692 -0.708792 0.000000 1.000000 184 184 0
0.555572 0.831469 -1.000000 0.391888 0.586505 -0.708792 1.000000 1.000000 182 182 0
0.707108 0.707105 1.000000 0.498764 0.498764 0.708792 0.000000 1.000000 121 62 62
0.555563 0.831474 1.000000 0.391888 0.586505 0.708792 1.000000 1.000000 118 53 53
3 0 1 2 
3 3 4 5 
3 0 6 7 
3 3 8 9 
3 0 10 11 
3 3 12 13 
3 0 14 15 
3 3 16 17 
3 0 18 19 
3 3 20 21 
3 0 22 23 
3 3 24 25 
3 0 26 27 
3 3 28 29 
3 0 30 31 
3 3 32 33 
3 0 34 35 
3 3 36 37 
3 0 38 39 
3 3 40 41 
3 0 42 43 
3 3 44 45 
3 0 46 47 
3 3 48 49 
3 0 50 51 
3 3 52 53 
3 0 54 55 
3 3 56 57 
3 0 58 59 
3 3 60 61 
3 0 62 63 
3 3 64 65 
3 0 66 67 
3 3 68 69 
3 0 70 71 
3 3 72 73 
3 0 74 75 
3 3 76 77 
3 0 78 79 
3 3 80 81 
3 0 82 83 
3 3 84 85 
3 0 86 87 
3 3 88 89 
3 0 90 91 
3 3 92 93 
3 0 94 95 
3 3 96 97 
3 0 98 99 
3 3 100 101 
3 0 102 103 
3 3 104 105 
3 0 106 107 
3 3 108 109 
3 0 110 111 
3 3 112 113 
3 0 114 115 
3 3 116 117 
3 0 118 119 
3 3 120 121 
3 0 122 123 
3 3 124 125 
3 126 1 127 
3 3 128 129 
4 130 128 9 131 
4 132 4 13 133 
4 134 8 17 135 
4 136 12 21 137 
4 138 16 25 139 
4 140 20 29 141 
4 142 24 33 143 
4 144 28 37 145 
4 146 32 41 147 
4 148 36 45 149 
4 150 40 49 151 
4 152 44 53 153 
4 154 48 57 155 
4 156 52 61 157 
4 158 56 65 159 
4 160 60 69 161 
4 162 64 73 163 
4 164 68 77 165 
4 166 72 81 167 
4 168 76 85 169 
4 170 80 89 171 
4 172 84 93 173 
4 174 88 97 175 
4 176 92 101 177 
4 178 96 105 179 
4 180 100 109 181 
4 182 104 113 183 
4 184 108 117 185 
4 186 112 121 187 
4 188 116 125 189 
4 190 120 129 191 
4 192 1 123 193 
